HIERARCHY
ROOT Hips
{
	OFFSET	0.00	0.00	0.00
	CHANNELS 6 Xposition Yposition Zposition Zrotation Xrotation Yrotation
	JOINT LeftUpLeg
	{
		OFFSET	 0.126116	-0.014019	-0.065224
		CHANNELS 3 Zrotation Xrotation Yrotation
		JOINT LeftLeg
		{
			OFFSET	 0.000000	 0.000000	 0.569914
			CHANNELS 3 Zrotation Xrotation Yrotation
			JOINT LeftFoot
			{
				OFFSET	 0.000000	 0.000000	 0.544423
				CHANNELS 3 Zrotation Xrotation Yrotation
				JOINT LeftToeBase
				{
					OFFSET	 0.000000	 0.000000	 0.207117
					CHANNELS 3 Zrotation Xrotation Yrotation
					End Site
					{
						OFFSET	 0.000000	 0.000000	 0.207117
					}
				}
			}
		}
	}
	JOINT RightUpLeg
	{
		OFFSET	-0.124023	-0.008373	-0.065224
		CHANNELS 3 Zrotation Xrotation Yrotation
		JOINT RightLeg
		{
			OFFSET	 0.000000	 0.000000	 0.570047
			CHANNELS 3 Zrotation Xrotation Yrotation
			JOINT RightFoot
			{
				OFFSET	 0.000000	 0.000000	 0.544354
				CHANNELS 3 Zrotation Xrotation Yrotation
				JOINT RightToeBase
				{
					OFFSET	 0.000000	 0.000000	 0.207540
					CHANNELS 3 Zrotation Xrotation Yrotation
					End Site
					{
						OFFSET	 0.000000	 0.000000	 0.207540
					}
				}
			}
		}
	}
	JOINT Spine
	{
		OFFSET	 0.000184	-0.007763	 0.117403
		CHANNELS 3 Zrotation Xrotation Yrotation
		JOINT Spine1
		{
			OFFSET	 0.000000	 0.000000	 0.137269
			CHANNELS 3 Zrotation Xrotation Yrotation
			JOINT Spine2
			{
				OFFSET	 0.000000	 0.000000	 0.156879
				CHANNELS 3 Zrotation Xrotation Yrotation
				JOINT LeftShoulder
				{
					OFFSET	 0.080501	-0.002496	 0.160144
					CHANNELS 3 Zrotation Xrotation Yrotation
					JOINT LeftArm
					{
						OFFSET	 0.000000	 0.000000	 0.164363
						CHANNELS 3 Zrotation Xrotation Yrotation
						JOINT LeftForeArm
						{
							OFFSET	 0.000000	 0.000000	 0.364576
							CHANNELS 3 Zrotation Xrotation Yrotation
							JOINT LeftHand
							{
								OFFSET	 0.000000	 0.000000	 0.360812
								CHANNELS 3 Zrotation Xrotation Yrotation
								JOINT LeftHandIndex1
								{
									OFFSET	 0.000000	 0.000000	 0.086006
									CHANNELS 3 Zrotation Xrotation Yrotation
									JOINT LeftHandIndex2
									{
										OFFSET	 0.000000	 0.000000	 0.047236
										CHANNELS 3 Zrotation Xrotation Yrotation
										JOINT LeftHandIndex3
										{
											OFFSET	-0.004284	-0.000551	 0.038166
											CHANNELS 3 Zrotation Xrotation Yrotation
											End Site
											{
												OFFSET	-0.004284	-0.000551	 0.038166
											}
										}
									}
								}
							}
						}
					}
				}
				JOINT Neck
				{
					OFFSET	 0.000000	 0.000000	 0.176489
					CHANNELS 3 Zrotation Xrotation Yrotation
					JOINT Head
					{
						OFFSET	 0.000000	-0.001747	 0.077940
						CHANNELS 3 Zrotation Xrotation Yrotation
						End Site
						{
							OFFSET	 0.000000	-0.001747	 0.077940
						}
					}
				}
				JOINT RightShoulder
				{
					OFFSET	-0.080363	 0.000306	 0.159706
					CHANNELS 3 Zrotation Xrotation Yrotation
					JOINT RightArm
					{
						OFFSET	 0.000000	 0.000000	 0.164196
						CHANNELS 3 Zrotation Xrotation Yrotation
						JOINT RightForeArm
						{
							OFFSET	 0.000000	 0.000000	 0.365611
							CHANNELS 3 Zrotation Xrotation Yrotation
							JOINT RightHand
							{
								OFFSET	 0.000000	 0.000000	 0.360648
								CHANNELS 3 Zrotation Xrotation Yrotation
								JOINT RightHandIndex1
								{
									OFFSET	 0.000000	 0.000000	 0.069977
									CHANNELS 3 Zrotation Xrotation Yrotation
									JOINT RightHandIndex2
									{
										OFFSET	 0.000000	 0.000000	 0.052305
										CHANNELS 3 Zrotation Xrotation Yrotation
										JOINT RightHandIndex3
										{
											OFFSET	 0.009002	-0.000782	 0.042196
											CHANNELS 3 Zrotation Xrotation Yrotation
											End Site
											{
												OFFSET	 0.009002	-0.000782	 0.042196
											}
										}
									}
								}
							}
						}
					}
				}
			}
		}
	}
}
MOTION
Frames:    5
Frame Time: 0.03333334
 0.002288	 0.022890	 1.215238	 0.001869	 0.736486	 0.483341	 4.121768	-1.740600	 179.840900	 3.149054	-11.594560	 1.749952	 4.341489	 71.407150	 1.245834	-2.385833	 28.452760	 0.000004	-4.123327	-2.151783	-179.865500	-3.142116	-11.963990	-1.790687	-4.347235	 71.430570	-1.263901	 2.384659	 28.388700	-0.000001	-0.005923	 3.783161	 0.089848	 0.000000	 0.000000	 0.000000	 0.000000	 0.000000	 0.000000	-91.229260	 83.958310	 178.242600	 12.080020	 0.580816	-1.590062	-5.132527	-0.912958	-0.284914	-17.073460	-3.989433	-4.302258	-2.434338	 5.182776	 7.472631	-5.213937	-0.202400	 3.566957	-1.378229	 35.397820	-2.634230	 0.411357	-3.779086	-0.073053	-0.595966	 0.008129	-0.142397	 87.726900	 87.419040	-176.798800	-12.547750	 3.325960	 3.698915	 5.871922	-0.462907	 0.434563	 17.279870	-5.018882	 8.533296	 3.236365	 2.840245	-9.892056	 5.070519	-0.690904	-9.399550	-2.350882	 35.473990	 5.254307
 0.014138	 0.038436	 1.215595	-179.988900	 0.627935	-0.187293	-10.543880	-10.118860	-177.287300	-1.816216	-40.664000	-7.128407	-167.798300	 83.116620	 154.253800	-2.199345	 46.857210	-0.477544	 0.917664	-9.309777	-179.021200	 6.746366	-40.460830	 9.753820	-173.860300	 83.001650	-176.817300	 2.361352	 32.644730	 0.094994	 2.525330	 5.976061	 0.203959	 3.110857	 9.050380	 1.667226	-7.496849	-21.745340	-2.300193	-91.229220	 83.958310	 178.242500	 42.064250	 65.912580	-43.544380	 9.332865	-0.204894	-0.847124	 24.879530	-3.765724	-7.915956	-11.581710	 8.171373	-24.429740	-5.213937	-0.202400	 3.566957	-1.378229	 35.397820	-2.634230	-1.386365	 7.019763	 5.385448	-5.513987	-19.374180	-7.823974	 87.726830	 87.418960	-176.798800	-63.409500	 59.238350	 65.957440	-9.364358	-0.229309	 0.835612	-39.846120	-2.236277	 18.207620	-0.542857	 25.773640	-61.804500	 5.070519	-0.690904	-9.399550	-2.350882	 35.473990	 5.254307
 0.013758	 0.037393	 1.217801	-179.490600	 0.600957	-0.200268	-10.772040	-10.329400	-177.060200	-1.675644	-40.318000	-6.985830	-169.153200	 84.042770	 155.505200	-2.135935	 50.048270	-0.587290	 0.364295	-9.503123	-179.218500	 6.792520	-40.411540	 9.775272	-172.918400	 83.473300	-177.823900	 2.369656	 31.310980	 0.064545	 1.571154	 5.958528	 0.346240	 2.888816	 8.395947	 1.192278	-6.728428	-21.648070	-1.754628	-91.229240	 83.958370	 178.242500	 47.858250	 67.715270	-49.576180	 8.692662	-0.200604	-1.014573	 24.586970	-3.715278	-8.037227	-11.965280	 7.297790	-25.049300	-5.213937	-0.202400	 3.566957	-1.378229	 35.397820	-2.634230	-1.403148	 6.742177	 5.200695	-5.439428	-20.015360	-7.614173	 87.726850	 87.418960	-176.798800	-66.586620	 59.636080	 67.846580	-8.210699	-0.220505	 1.002904	-38.923970	-1.879004	 18.368770	-0.093503	 26.512160	-62.151370	 5.070519	-0.690904	-9.399550	-2.350882	 35.473990	 5.254307
 0.013796	 0.036512	 1.218365	-179.333900	 0.591858	-0.161858	-10.829900	-10.585180	-176.902700	-1.574873	-40.157930	-6.896723	-170.361100	 84.562820	 156.633400	-2.118824	 50.805650	-0.615252	 0.099157	-9.766004	-179.566600	 6.806083	-40.347120	 9.771733	-169.888000	 83.811480	 179.190200	 2.370624	 31.144140	 0.060786	 1.322964	 6.001471	 0.350623	 2.856126	 7.927619	 1.130618	-6.544510	-21.520930	-1.653780	-91.229390	 83.958310	 178.242700	 57.585220	 70.325820	-51.158310	 7.672023	-6.867069	-16.206380	 24.605310	-3.706557	-8.077323	-12.133510	 7.022812	-25.394390	-5.213937	-0.202400	 3.566957	-1.378229	 35.397820	-2.634230	-1.396285	 6.664031	 5.103012	-5.403805	-20.181360	-7.507998	 87.727010	 87.419040	-176.799000	-73.976560	 60.932910	 68.135170	-7.322491	-6.255628	 13.249290	-38.753040	-1.819013	 18.412120	-0.035647	 26.617530	-62.257170	 5.070519	-0.690904	-9.399550	-2.350882	 35.473990	 5.254307
 0.013690	 0.035578	 1.218910	-179.173400	 0.617255	-0.212692	-10.919450	-10.832040	-176.691100	-1.466997	-39.969620	-6.799380	-171.444700	 85.032330	 157.640300	-2.107481	 51.287850	-0.633484	-0.091847	-10.034910	-179.768400	 6.788282	-40.337550	 9.757872	-167.401800	 84.057820	 176.763600	 2.371819	 30.935330	 0.056096	 1.089867	 6.034409	 0.417811	 2.812326	 7.567875	 1.101584	-6.385750	-21.459070	-1.566529	-91.229260	 83.958270	 178.242600	 65.858700	 71.781650	-54.771280	 6.191210	-10.455120	-25.158360	 24.577520	-3.690627	-8.114264	-12.238650	 6.846631	-25.604130	-5.213937	-0.202400	 3.566957	-1.378229	 35.397820	-2.634230	-1.412235	 6.616714	 5.063280	-5.407424	-20.359030	-7.511106	 87.726870	 87.418890	-176.798800	-80.412320	 61.787710	 68.907930	-5.692956	-10.823680	 23.249340	-38.650400	-1.782929	 18.449440	-0.058416	 26.594750	-62.314920	 5.070519	-0.690904	-9.399550	-2.350882	 35.473990	 5.254307
